<!-- Generated by IcoMoon.io -->
<svg version="1.1" xmlns="http://www.w3.org/2000/svg" width="32" height="32" viewBox="0 0 32 32">
<title>anchor</title>
<path d="M17.152 4.576q0-0.48-0.352-0.8t-0.8-0.352-0.8 0.352-0.352 0.8 0.352 0.8 0.8 0.352 0.8-0.352 0.352-0.8zM32 21.152v6.272q0 0.384-0.352 0.544-0.16 0.032-0.224 0.032-0.224 0-0.416-0.16l-1.664-1.664q-2.112 2.56-5.664 4.064t-7.68 1.472-7.68-1.472-5.664-4.064l-1.664 1.664q-0.16 0.16-0.416 0.16-0.064 0-0.224-0.032-0.352-0.16-0.352-0.544v-6.272q0-0.256 0.16-0.416t0.416-0.16h6.272q0.416 0 0.544 0.352 0.16 0.352-0.128 0.608l-1.792 1.792q1.216 1.632 3.392 2.752t4.864 1.472v-11.552h-3.456q-0.448 0-0.8-0.352t-0.32-0.8v-2.272q0-0.48 0.32-0.8t0.8-0.352h3.456v-2.912q-1.056-0.608-1.664-1.632t-0.64-2.304q0-1.888 1.344-3.232t3.232-1.344 3.232 1.344 1.344 3.232q0 1.248-0.64 2.304t-1.664 1.632v2.912h3.456q0.448 0 0.8 0.352t0.32 0.8v2.272q0 0.48-0.32 0.8t-0.8 0.352h-3.456v11.552q2.688-0.352 4.864-1.472t3.392-2.752l-1.792-1.792q-0.256-0.256-0.128-0.608t0.544-0.352h6.272q0.256 0 0.416 0.16t0.16 0.416z"></path>
</svg>
