<!-- Generated by IcoMoon.io -->
<svg version="1.1" xmlns="http://www.w3.org/2000/svg" width="32" height="32" viewBox="0 0 32 32">
<title>camera-alt</title>
<path d="M16.576 14.848q0-0.256-0.16-0.416t-0.416-0.16q-1.184 0-2.016 0.864t-0.832 2.016q0 0.224 0.16 0.384t0.416 0.192 0.384-0.192 0.16-0.384q0-0.736 0.512-1.216t1.216-0.512q0.256 0 0.416-0.16t0.16-0.416zM20.576 17.184q0 1.888-1.344 3.232t-3.232 1.344-3.232-1.344-1.344-3.232 1.344-3.232 3.232-1.344 3.232 1.344 1.344 3.232zM2.272 27.424h27.456v-2.272h-27.456v2.272zM22.848 17.184q0-2.848-1.984-4.864t-4.864-2.016-4.832 2.016-2.016 4.864 2.016 4.832 4.832 2.016 4.864-2.016 1.984-4.832zM4.576 5.728h6.848v-2.304h-6.848v2.304zM2.272 9.152h27.456v-4.576h-14.784l-1.152 2.272h-11.52v2.304zM32 4.576v22.848q0 0.96-0.672 1.632t-1.6 0.672h-27.456q-0.928 0-1.6-0.672t-0.672-1.632v-22.848q0-0.96 0.672-1.632t1.6-0.672h27.456q0.928 0 1.6 0.672t0.672 1.632z"></path>
</svg>
