<!-- Generated by IcoMoon.io -->
<svg version="1.1" xmlns="http://www.w3.org/2000/svg" width="27" height="32" viewBox="0 0 27 32">
<title>down-hand</title>
<path d="M25.152 17.152q0-1.504-0.576-3.264t-1.152-3.488-0.576-2.976v-0.576h-11.424v0.576q0 0.64-0.224 1.216t-0.64 1.12-0.832 0.896-0.96 0.864q-0.16 0.128-0.256 0.224-1.44 1.28-2.592 1.984-0.384 0.256-1.216 0.672-0.032 0.032-0.384 0.192t-0.64 0.32-0.64 0.384-0.544 0.384-0.224 0.32q0 1.28 0.544 2.048t1.76 0.8q0.768 0 1.504-0.256t1.216-0.608 0.992-0.576 0.864-0.256v10.272q0 0.896 0.672 1.6t1.6 0.704 1.6-0.704 0.704-1.6v-5.92q0.8 0.64 1.824 0.64 1.248 0 2.144-0.96 0.544 0.32 1.216 0.32t1.312-0.288 0.928-0.864q0.448 0.064 1.024 0.064 1.504 0 2.24-0.864t0.736-2.4zM22.848 3.424q0-0.448-0.32-0.8t-0.8-0.352-0.8 0.352-0.352 0.8 0.352 0.8 0.8 0.352 0.8-0.352 0.32-0.8zM27.424 17.056q0 2.56-1.376 4.128t-3.872 1.536h-0.096q-1.376 1.088-3.2 1.088-0.384 0-0.768-0.064-0.96 0.544-2.112 0.672v3.008q0 1.888-1.344 3.232t-3.232 1.344q-1.856 0-3.2-1.344t-1.376-3.232v-6.688q-0.96 0.416-2.272 0.416-2.176 0-3.36-1.472t-1.216-3.68q0-0.672 0.32-1.248t0.864-0.992 1.152-0.704 1.28-0.672 1.088-0.576q0.992-0.64 2.304-1.792 0.064-0.032 0.32-0.256t0.384-0.32 0.384-0.384 0.384-0.416 0.32-0.416 0.256-0.416 0.096-0.384v-5.152q0-0.928 0.672-1.6t1.6-0.672h11.424q0.96 0 1.632 0.672t0.672 1.6v5.152q0 1.056 1.056 4 1.216 3.392 1.216 5.632z"></path>
</svg>
