<!-- Generated by IcoMoon.io -->
<svg version="1.1" xmlns="http://www.w3.org/2000/svg" width="27" height="32" viewBox="0 0 27 32">
<title>gplus-squared</title>
<path d="M16.384 16.16q0-0.48-0.128-1.152h-6.464v2.368h3.904q-0.064 0.416-0.32 0.896t-0.672 0.928-1.184 0.8-1.728 0.32q-1.76 0-3.008-1.28t-1.248-3.040 1.248-3.040 3.008-1.28q1.664 0 2.752 1.056l1.856-1.824q-1.92-1.76-4.608-1.76-2.848 0-4.832 1.984t-2.016 4.864 2.016 4.832 4.832 2.016q2.944 0 4.768-1.856t1.824-4.832zM22.528 16.992h1.952v-1.984h-1.952v-1.952h-1.952v1.952h-1.952v1.984h1.952v1.952h1.952v-1.952zM27.424 7.424v17.152q0 2.112-1.504 3.616t-3.648 1.536h-17.12q-2.144 0-3.648-1.536t-1.504-3.616v-17.152q0-2.112 1.504-3.616t3.648-1.536h17.12q2.144 0 3.648 1.536t1.504 3.616z"></path>
</svg>
