<!-- Generated by IcoMoon.io -->
<svg version="1.1" xmlns="http://www.w3.org/2000/svg" width="32" height="32" viewBox="0 0 32 32">
<title>left-hand</title>
<path d="M24.576 25.152h0.576v-11.424h-0.576q-0.64 0-1.216-0.224t-1.12-0.672-0.896-0.8-0.864-0.992q-0.128-0.16-0.224-0.224-1.28-1.472-1.984-2.592-0.256-0.416-0.672-1.216-0.032-0.064-0.192-0.416t-0.32-0.64-0.384-0.64-0.384-0.544-0.32-0.192q-1.28 0-2.048 0.544t-0.8 1.728q0 0.768 0.256 1.504t0.608 1.216 0.576 0.992 0.256 0.864h-10.272q-0.896 0-1.6 0.704t-0.704 1.6q0 0.928 0.704 1.6t1.6 0.672h5.92q-0.288 0.288-0.448 0.832t-0.192 0.992q0 1.248 0.96 2.144-0.32 0.576-0.32 1.216t0.288 1.312 0.864 0.96q-0.064 0.416-0.064 0.992 0 1.504 0.864 2.24t2.4 0.736q1.504 0 3.264-0.576t3.488-1.12 2.976-0.576zM29.728 24q0-0.48-0.352-0.8t-0.8-0.352-0.8 0.352-0.352 0.8 0.352 0.8 0.8 0.352 0.8-0.352 0.352-0.8zM32 13.728v11.424q0 0.928-0.672 1.6t-1.6 0.672h-5.152q-1.056 0-4 1.056-3.392 1.248-5.632 1.248-2.56 0-4.128-1.408t-1.536-3.872v-0.096q-1.088-1.344-1.088-3.168 0-0.384 0.064-0.768-0.608-1.024-0.672-2.144h-3.008q-1.888 0-3.232-1.344t-1.344-3.232q0-1.856 1.344-3.2t3.232-1.344h6.688q-0.416-1.088-0.416-2.304 0-2.176 1.472-3.36t3.68-1.216q0.672 0 1.248 0.32t0.992 0.896 0.704 1.12 0.672 1.28 0.576 1.12q0.64 0.96 1.792 2.304 0.032 0.032 0.256 0.288t0.32 0.384 0.384 0.384 0.416 0.416 0.416 0.32 0.416 0.256 0.384 0.064h5.152q0.928 0 1.6 0.672t0.672 1.632z"></path>
</svg>
