<!-- Generated by IcoMoon.io -->
<svg version="1.1" xmlns="http://www.w3.org/2000/svg" width="32" height="32" viewBox="0 0 32 32">
<title>right-hand</title>
<path d="M4.576 24q0-0.48-0.352-0.8t-0.8-0.352-0.8 0.352-0.352 0.8 0.352 0.8 0.8 0.352 0.8-0.352 0.352-0.8zM29.728 13.728q0-0.928-0.704-1.6t-1.6-0.704h-10.272q0-0.352 0.256-0.864t0.608-0.992 0.576-1.216 0.256-1.504q0-1.184-0.768-1.728t-2.080-0.544q-0.416 0-1.6 2.464-0.448 0.8-0.672 1.184-0.704 1.12-1.984 2.592-1.28 1.44-1.824 1.888-1.216 1.024-2.496 1.024h-0.576v11.424h0.576q1.28 0 2.976 0.576t3.456 1.12 3.232 0.576q3.36 0 3.36-2.976 0-0.48-0.096-0.992 0.544-0.288 0.864-0.96t0.288-1.312-0.32-1.216q0.96-0.896 0.96-2.144 0-0.448-0.192-0.992t-0.448-0.832h5.92q0.928 0 1.6-0.672t0.704-1.6zM32 13.696q0 1.888-1.344 3.232t-3.232 1.344h-3.008q-0.064 1.12-0.672 2.144 0.064 0.384 0.064 0.768 0 1.792-1.088 3.168 0.032 2.496-1.504 3.936t-4.064 1.44q-2.368 0-5.728-1.248-2.944-1.056-4-1.056h-5.152q-0.928 0-1.6-0.672t-0.672-1.6v-11.424q0-0.96 0.672-1.632t1.6-0.672h5.152q0.192 0 0.384-0.064t0.416-0.256 0.416-0.32 0.416-0.416 0.384-0.384 0.32-0.384 0.256-0.288q1.152-1.344 1.792-2.304 0.224-0.384 0.576-1.12t0.672-1.28 0.736-1.12 0.96-0.896 1.248-0.32q2.24 0 3.68 1.216t1.472 3.36q0 1.216-0.416 2.304h6.688q1.856 0 3.232 1.344t1.344 3.2z"></path>
</svg>
