<!-- Generated by IcoMoon.io -->
<svg version="1.1" xmlns="http://www.w3.org/2000/svg" width="27" height="32" viewBox="0 0 27 32">
<title>up-hand</title>
<path d="M22.848 28.576q0-0.48-0.32-0.8t-0.8-0.352-0.8 0.352-0.352 0.8 0.352 0.8 0.8 0.352 0.8-0.352 0.32-0.8zM25.152 14.912q0-3.36-2.976-3.36-0.48 0-1.024 0.096-0.288-0.544-0.928-0.864t-1.312-0.288-1.216 0.32q-0.896-0.96-2.144-0.96-0.448 0-0.992 0.192t-0.832 0.448v-5.92q0-0.928-0.704-1.6t-1.6-0.704q-0.896 0-1.6 0.704t-0.672 1.6v10.272q-0.352 0-0.864-0.256t-0.992-0.608-1.216-0.576-1.504-0.256q-1.184 0-1.76 0.768t-0.544 2.080q0 0.416 2.496 1.6 0.8 0.448 1.152 0.672 1.152 0.704 2.592 1.984t1.888 1.824q1.024 1.216 1.024 2.496v0.576h11.424v-0.576q0-1.28 0.576-2.976t1.152-3.456 0.576-3.232zM27.424 14.848q0 2.368-1.216 5.728-1.056 2.944-1.056 4v5.152q0 0.928-0.672 1.6t-1.632 0.672h-11.424q-0.928 0-1.6-0.672t-0.672-1.6v-5.152q0-0.192-0.096-0.384t-0.256-0.416-0.32-0.416-0.384-0.416-0.384-0.384-0.384-0.32-0.32-0.256q-1.312-1.152-2.304-1.792-0.352-0.224-1.088-0.576t-1.28-0.672-1.152-0.736-0.864-0.96-0.32-1.248q0-2.24 1.184-3.68t3.392-1.472q1.216 0 2.272 0.416v-6.688q0-1.856 1.376-3.232t3.2-1.344q1.856 0 3.232 1.344t1.344 3.232v3.008q1.12 0.064 2.112 0.672 0.384-0.064 0.768-0.064 1.824 0 3.2 1.088 2.464-0.032 3.904 1.504t1.44 4.064z"></path>
</svg>
