<?xml version="1.0" encoding="utf-8"?>
<!-- Generator: Adobe Illustrator 17.0.0, SVG Export Plug-In . SVG Version: 6.00 Build 0)  -->
<!DOCTYPE svg PUBLIC "-//W3C//DTD SVG 1.1//EN" "http://www.w3.org/Graphics/SVG/1.1/DTD/svg11.dtd">
<svg version="1.1" id="Layer_1" xmlns="http://www.w3.org/2000/svg" xmlns:xlink="http://www.w3.org/1999/xlink" x="0px" y="0px"
	 width="612px" height="612px" viewBox="0 0 612 612" enable-background="new 0 0 612 612" xml:space="preserve">
<path d="M136,306.007c0-93.902,76.105-169.995,170.018-169.995c93.867,0,169.982,76.093,169.982,169.995
	c0,93.878-76.115,169.981-169.982,169.981C212.105,475.988,136,399.885,136,306.007z M207.479,253.42l1.777,4.591h6.655
	l10.208-12.319l2.492-2.837l3.484,0.715l2.145,3.529c0,0,6.666-4.578,9.147-6.689c2.469-2.112,3.864-2.837,3.864-2.837l2.112,6.355
	c0,0,10.888-8.453,11.972-7.382c1.05,1.028,0.704,3.865,0.704,3.865s-16.541,13.01-19.735,28.859
	c-3.16,15.837-2.803,26.737-0.692,35.181c2.109,8.431,9.158,20.773,9.158,20.773h1.395l2.469-0.703c0,0,0.369-3.507,1.084-5.999
	c0.693-2.422,2.422-3.875,7.014-4.914c4.567-1.06,5.293-1.06,8.096-6.343c2.803-5.306,2.803-8.813,2.803-8.813h7.048l-0.693-10.52
	l9.839,0.347l1.05-3.53l5.294-0.715c0,0-3.161-11.58-4.579-15.479c-1.407-3.864-5.641-7.036-4.568-9.505
	c1.038-2.469,3.162-1.038,3.162-1.038s9.48,13,10.185,17.59c0.715,4.556,2.826,26.737,2.469,35.192
	c-0.358,8.455-6.667,41.499-4.556,43.634c0,0,5.639,5.641,15.478,4.556c9.851-1.061,16.53-4.222,17.222-8.063
	c0.715-3.887-2.803-38.029-4.187-46.795c-1.407-8.813-8.823-32.759-9.158-34.523c-0.358-1.765-1.073-9.493-1.073-9.493l5.283,0.369
	l1.408,10.531l5.986,2.11l3.518,1.396l2.444-2.457l1.765,0.692c0,0,1.061,8.143,3.541,10.578c2.423,2.479,6.334,3.864,8.074,3.171
	c1.765-0.692,1.765-2.099,1.765-2.099l1.765,1.06c0,0,0,8.074,1.05,10.197c1.06,2.099,3.506,6.689,6.332,5.998
	c2.848-0.715,19.343-20.093,21.822-33.819c2.48-13.702,0.358-29.205-2.121-32.365c-2.469-3.162-14.05-14.765-31.317-14.765
	c-17.254,0-34.119,3.898-38.34,7.416c-4.221,3.472-1.084-6.355-1.084-6.355l9.516-1.373l1.764-1.777h1.764l0.716-3.218l12.987-0.323
	l0.715-6.343l17.925-0.323l0.38-7.774l4.568,2.814l10.899-0.346l2.47,2.827h1.776l0.692-9.863c0,0-8.408-15.814-13.368-19.701
	c-4.937-3.874-16.551-13.715-25.341-12.665c-8.801,1.061-22.861,8.421-27.797,14.787c-4.926,6.344-16.529,26.023-17.244,29.922
	c-0.692,3.852-3.507,16.193-3.507,16.193l-2.814-1.084c0,0-22.228-22.768-31.19-24.268c-8.684-1.464-20.346-2.087-29.332,2.434
	c-7.75,3.933-23.956,19.702-27.439,26.045c-3.53,6.367-8.098,15.837-8.455,19.701c-0.381,3.887-0.381,25.018-0.381,25.018
	l2.502,0.669l14.765-19.331L207.479,253.42z M332.131,318.81c1.546,14.729,2.872,31.039,2.365,33.876
	c-0.853,4.671-8.939,8.49-20.854,9.77c-11.949,1.245-18.731-5.515-18.731-5.515c-1.73-1.764,1.257-20.935,3.473-36.206
	c-55.828,6.068-97.525,25.295-96.591,46.23c1.05,23.449,55.493,40.048,121.596,37.094c66.093-2.975,118.839-24.394,117.813-47.868
	C440.209,334.231,392.422,318.325,332.131,318.81z"/>
</svg>
