<?xml version="1.0" standalone="no"?>
<!DOCTYPE svg PUBLIC "-//W3C//DTD SVG 20010904//EN"
 "http://www.w3.org/TR/2001/REC-SVG-20010904/DTD/svg10.dtd">
<svg version="1.0" xmlns="http://www.w3.org/2000/svg"
 width="1358.000000pt" height="1358.000000pt" viewBox="0 0 1358.000000 1358.000000"
 preserveAspectRatio="xMidYMid meet">
<metadata>
Created by potrace 1.11, written by Peter Selinger 2001-2013
</metadata>
<g transform="translate(0.000000,1358.000000) scale(0.100000,-0.100000)"
fill="#000000" stroke="none">
<path d="M11751 8506 c-19 -36 -32 -66 -30 -68 2 -2 -6 -14 -18 -28 -13 -13
-23 -32 -23 -42 0 -10 -4 -18 -10 -18 -5 0 -10 -9 -10 -19 0 -11 -6 -26 -12
-33 -7 -7 -14 -20 -16 -28 -2 -8 -7 -17 -10 -20 -12 -9 -32 -49 -32 -64 0 -8
-4 -16 -8 -18 -11 -4 -102 -187 -102 -204 0 -7 -4 -14 -9 -16 -5 -1 -11 -10
-13 -18 -2 -8 -9 -21 -16 -28 -7 -8 -10 -18 -7 -23 4 -5 2 -9 -3 -9 -4 0 -26
-35 -47 -77 -21 -43 -53 -108 -71 -145 -19 -38 -31 -68 -26 -68 4 0 2 -4 -4
-8 -13 -7 -125 -222 -117 -222 2 0 -3 -7 -11 -16 -9 -8 -14 -19 -11 -23 2 -5
-4 -17 -15 -28 -10 -12 -16 -24 -13 -27 4 -3 2 -6 -4 -6 -6 0 -14 -12 -18 -27
-3 -16 -13 -36 -22 -45 -8 -9 -12 -21 -9 -27 3 -5 2 -11 -3 -13 -10 -4 -66
-110 -63 -120 1 -5 -3 -8 -8 -8 -6 0 -10 -9 -10 -20 0 -11 -4 -20 -8 -20 -5 0
-15 -19 -22 -41 -8 -23 -19 -47 -25 -53 -5 -6 -30 -52 -55 -101 -24 -50 -49
-93 -55 -97 -5 -4 -7 -8 -3 -8 7 0 -81 -181 -92 -190 -4 -3 -15 -26 -26 -52
-10 -27 -22 -48 -26 -48 -5 0 -8 -8 -8 -18 0 -9 -11 -33 -24 -52 -13 -19 -27
-50 -30 -67 -4 -18 -12 -33 -17 -33 -5 0 -9 -7 -9 -15 0 -8 -5 -15 -11 -15 -6
0 -9 -7 -5 -15 3 -8 1 -15 -5 -15 -6 0 -7 -4 -4 -10 3 -5 2 -10 -3 -10 -6 0
-18 -20 -29 -45 -10 -25 -21 -45 -25 -45 -5 0 -8 -9 -8 -19 0 -11 -7 -27 -16
-35 -8 -9 -13 -20 -10 -25 3 -5 -1 -12 -10 -15 -9 -4 -14 -9 -11 -13 4 -3 -7
-30 -23 -60 -40 -72 -39 -90 3 -95 18 -2 44 0 58 3 13 4 314 7 668 8 393 0
647 4 650 10 4 5 6 415 6 911 0 496 4 904 8 907 7 4 111 -54 145 -82 21 -17
98 -98 128 -135 16 -19 32 -36 37 -38 4 -2 7 -10 7 -18 0 -8 5 -14 11 -14 5 0
8 -4 4 -9 -3 -5 -1 -12 4 -15 9 -6 73 -130 78 -151 3 -13 28 -82 44 -120 7
-16 13 -33 14 -37 2 -5 4 -10 5 -13 1 -3 4 -9 5 -15 1 -5 4 -11 5 -12 1 -2 3
-14 4 -28 2 -14 6 -32 10 -42 4 -9 9 -31 11 -50 2 -18 4 -33 5 -33 1 0 3 -22
5 -50 2 -27 6 -63 10 -80 3 -16 5 -109 5 -205 -1 -205 -2 -230 -10 -230 -4 0
-7 -17 -7 -37 -2 -66 -12 -150 -22 -176 -6 -14 -8 -35 -6 -46 2 -12 -1 -21 -6
-21 -6 0 -8 -4 -4 -9 3 -5 1 -12 -4 -15 -5 -4 -8 -17 -6 -31 1 -14 -1 -25 -4
-25 -4 0 -17 -38 -30 -85 -22 -79 -25 -85 -50 -86 -14 0 -439 -1 -943 -1 -628
0 -918 -4 -918 -11 0 -6 -3 -7 -7 -4 -5 6 -37 -30 -38 -43 0 -3 -4 -10 -8 -17
-20 -32 -36 -93 -25 -99 6 -4 476 -7 1044 -7 1084 0 1063 -1 1064 42 0 9 7 25
15 35 8 10 12 23 9 28 -3 5 0 15 6 23 7 8 10 15 7 15 -3 0 0 15 8 34 8 18 11
37 7 40 -3 4 -2 10 3 14 10 7 32 74 39 117 2 11 4 20 6 20 1 0 4 18 6 40 3 22
5 46 6 53 1 6 4 12 8 12 3 0 5 15 5 33 -1 17 1 36 4 42 2 5 6 30 7 55 1 25 6
61 11 80 10 40 11 520 1 536 -4 5 -5 19 -4 30 2 10 1 24 -3 29 -3 6 -7 19 -7
30 -4 48 -15 110 -23 119 -5 6 -8 23 -7 39 1 15 -2 27 -7 27 -4 0 -6 4 -3 8 2
4 -1 21 -9 37 -19 43 -29 69 -30 80 -6 34 -116 265 -127 265 -4 0 -8 6 -8 14
0 8 -4 16 -8 18 -5 2 -22 23 -39 48 -55 80 -231 250 -260 250 -6 0 -13 3 -15
8 -3 7 -62 37 -128 64 l-35 15 0 368 c0 236 -4 370 -10 372 -6 1 -25 -26 -44
-61z m-126 -1604 c0 -625 -3 -929 -10 -934 -5 -4 -221 -8 -478 -8 l-468 0 7
22 c3 12 13 28 20 36 8 7 14 19 14 26 0 8 7 19 15 26 8 7 12 17 9 22 -4 6 -3
13 2 17 13 9 57 91 49 91 -4 0 1 7 9 16 9 8 14 20 11 25 -4 5 -2 9 4 9 5 0 13
10 17 23 4 12 17 38 30 58 13 20 20 40 17 43 -4 3 -1 6 6 6 7 0 10 4 7 9 -4 5
-3 11 1 13 5 1 23 35 42 73 39 79 36 72 46 103 4 12 12 22 18 22 6 0 7 3 4 6
-7 7 22 64 38 76 6 4 6 8 1 8 -5 0 -1 9 9 20 10 11 14 20 9 20 -5 0 0 7 11 16
11 8 19 18 18 22 -5 12 8 42 18 42 5 0 8 3 7 8 -1 4 3 17 10 28 6 12 8 24 5
28 -3 3 -1 6 5 6 6 0 16 16 22 35 6 19 16 35 20 35 5 0 7 7 4 15 -4 8 -1 15 5
15 6 0 10 3 9 8 -3 11 45 102 53 102 4 0 10 14 14 30 4 17 11 30 16 30 5 0 8
3 7 8 -1 6 40 94 62 132 4 8 14 30 20 48 7 17 16 32 21 32 5 0 9 7 9 16 0 9
14 39 30 66 17 26 30 55 30 62 0 8 5 16 12 18 6 2 13 14 15 27 2 12 10 29 18
38 8 8 13 19 10 24 -4 5 -1 9 4 9 6 0 11 4 11 10 0 17 34 90 42 90 5 0 8 8 8
18 0 9 9 28 20 42 11 14 20 31 20 39 0 8 3 11 7 7 4 -4 8 -424 8 -934z"/>
<path d="M8458 8545 c-5 -5 -18 -9 -77 -21 -13 -3 -36 -11 -51 -19 -15 -8 -30
-12 -34 -10 -3 3 -2 0 3 -6 4 -6 17 -12 27 -13 11 -2 20 -12 22 -24 2 -12 7
-22 11 -22 11 0 13 -82 14 -527 0 -267 3 -383 11 -386 8 -3 161 19 161 23 0 0
0 98 -1 218 -1 256 9 354 37 388 6 8 8 14 3 14 -4 0 8 15 28 33 50 46 96 47
174 7 128 -67 146 -106 129 -280 -4 -41 -9 -91 -10 -110 -2 -19 -4 -35 -5 -35
-7 0 -19 -224 -13 -241 5 -15 68 -9 173 14 l35 8 -26 24 c-21 21 -25 33 -23
80 1 55 11 147 19 191 13 66 23 210 16 224 -3 6 -7 19 -9 30 -4 29 -26 75 -34
75 -5 0 -8 5 -8 11 0 17 -66 74 -117 100 -63 32 -161 33 -215 1 -68 -39 -118
-75 -118 -83 0 -5 -6 -9 -12 -9 -9 0 -13 17 -14 48 -3 73 -14 165 -24 192 -1
3 -3 10 -4 15 -10 54 -29 95 -45 95 -10 0 -20 -2 -23 -5z"/>
<path d="M7890 8465 c-41 -24 -80 -48 -86 -53 -7 -6 -14 -8 -17 -5 -3 2 -4
-11 -3 -30 2 -20 0 -39 -3 -44 -3 -4 -37 -8 -76 -8 l-70 0 -17 -35 c-10 -22
-13 -39 -7 -45 7 -6 13 -5 18 4 5 8 16 11 25 8 9 -4 16 -2 16 3 0 12 109 14
111 3 1 -5 2 -145 3 -312 1 -230 5 -306 14 -309 6 -2 12 -10 12 -17 0 -7 14
-27 30 -43 17 -17 30 -28 30 -25 0 3 11 -2 25 -11 13 -9 34 -16 45 -16 14 0
19 -4 14 -12 -5 -7 -3 -8 5 -3 7 4 34 7 59 8 118 0 201 75 218 196 l5 37 -61
10 c-68 11 -66 13 -75 -51 -8 -60 -26 -108 -46 -127 -17 -17 -19 -16 -48 11
-17 16 -34 43 -37 60 -4 17 -10 31 -15 31 -11 0 -10 -17 -14 313 l-4 267 83 0
c86 0 175 20 200 45 8 8 19 15 25 15 13 0 15 17 3 24 -4 2 -31 -2 -60 -9 -52
-14 -112 -19 -205 -16 l-49 1 7 48 c3 26 13 62 21 81 9 18 12 36 7 41 -4 4
-42 -12 -83 -35z"/>
<path d="M4930 8339 c0 -5 -7 -9 -16 -9 -20 0 -115 -40 -135 -57 -8 -7 -21
-13 -27 -13 -12 0 -40 -22 -91 -70 -29 -28 -85 -100 -77 -100 3 0 -2 -17 -11
-37 -20 -47 -24 -181 -8 -243 16 -58 48 -130 57 -130 5 0 8 -5 8 -11 0 -20 74
-79 140 -111 46 -22 80 -32 115 -32 42 0 120 9 120 14 0 3 51 13 73 14 12 1
22 4 22 9 0 4 11 7 25 7 14 0 25 4 25 8 0 4 12 12 28 18 27 10 63 69 77 124 5
22 2 27 -28 38 -53 19 -64 15 -78 -25 -7 -21 -14 -40 -14 -43 -21 -114 -127
-138 -247 -57 -16 10 -28 16 -28 13 0 -3 -21 16 -47 41 -27 26 -47 50 -45 55
1 4 -2 8 -6 8 -9 0 -29 57 -36 102 -3 15 -7 32 -11 38 -6 9 25 16 50 10 38 -8
45 -8 45 0 0 5 9 6 22 1 12 -4 37 -5 55 -1 22 6 33 4 33 -4 0 -7 3 -8 8 -1 4
6 23 12 43 13 55 5 52 4 146 41 24 9 43 20 43 24 0 5 5 5 12 1 8 -5 9 -2 5 10
-4 10 -7 20 -7 22 0 3 -8 0 -18 -5 -10 -5 -32 -12 -48 -15 -16 -2 -29 -5 -29
-6 0 -1 -10 -3 -22 -4 -13 -2 -23 1 -23 6 0 5 -5 6 -11 2 -19 -11 -290 -10
-298 1 -12 14 -10 45 3 45 6 0 6 4 -1 11 -12 12 -6 49 8 49 5 0 6 6 3 14 -7
19 44 126 70 148 22 18 80 34 106 29 32 -6 122 -55 151 -82 17 -16 34 -29 37
-29 3 0 13 -7 22 -15 17 -16 55 -10 44 6 -3 5 -1 9 5 9 16 0 61 46 61 61 0 20
-108 88 -165 104 -42 12 -135 14 -135 4z"/>
<path d="M5630 8329 c-41 -9 -77 -16 -79 -13 -2 2 -12 -1 -23 -7 -20 -11 -17
-24 5 -24 17 0 47 -66 54 -117 7 -54 7 -533 0 -570 -7 -32 5 -43 58 -52 22 -4
54 -10 70 -14 17 -4 77 -6 135 -6 121 1 208 28 285 86 55 41 97 120 97 181 0
45 -30 111 -60 135 -9 6 -12 12 -7 12 6 0 -8 10 -30 21 -22 12 -43 27 -47 33
-4 6 -8 7 -8 2 0 -6 -5 -5 -12 2 -7 7 -20 12 -29 12 -9 0 -22 6 -28 14 -9 10
-2 20 29 47 22 19 40 39 40 45 0 6 6 16 13 22 15 13 20 62 12 113 -5 30 -14
40 -53 61 -26 14 -62 25 -80 24 -17 -1 -32 3 -32 7 0 5 -5 5 -12 1 -7 -4 -22
-9 -34 -10 -28 -3 -93 -37 -121 -63 l-21 -20 -13 32 c-26 67 -25 66 -109 46z
m235 -69 c3 -5 14 -10 24 -10 27 0 93 -63 106 -101 9 -27 9 -38 -4 -61 -18
-31 -93 -71 -164 -89 -51 -12 -73 -29 -33 -25 30 4 100 -20 128 -42 108 -87
155 -164 149 -247 -2 -35 -40 -95 -60 -95 -8 0 -23 -7 -33 -17 -26 -23 -78
-18 -156 16 l-67 30 -1 296 0 296 35 29 c35 30 65 38 76 20z"/>
<path d="M6650 8329 c-30 -11 -59 -24 -64 -29 -6 -6 -18 -10 -28 -10 -10 0
-18 -4 -18 -9 0 -5 -9 -11 -20 -14 -37 -9 -55 -24 -122 -92 -35 -36 -77 -106
-82 -137 -1 -7 -4 -17 -7 -23 -9 -15 1 -223 11 -232 1 -2 3 -6 4 -10 1 -5 7
-18 14 -30 7 -13 10 -23 7 -23 -7 0 41 -65 65 -90 22 -21 96 -69 128 -82 48
-19 122 -36 122 -29 0 4 6 8 13 9 6 0 30 3 52 5 38 5 52 9 93 23 9 4 24 8 32
10 8 1 24 5 35 8 11 2 23 5 27 5 22 3 84 91 80 114 -1 4 2 7 6 7 4 0 8 10 10
23 1 18 -7 25 -44 39 l-46 16 -15 -36 c-15 -37 -21 -56 -22 -79 -1 -7 -17 -27
-36 -46 -36 -35 -73 -41 -135 -23 -77 24 -227 153 -207 179 1 2 -4 11 -12 20
-7 9 -11 23 -8 32 4 8 2 17 -3 20 -6 4 -10 18 -10 32 0 22 3 25 30 21 17 -3
30 -2 30 1 0 8 74 6 87 -2 5 -3 15 -2 23 3 7 4 24 4 36 0 13 -5 26 -6 28 -1 3
5 27 11 53 15 60 8 173 60 173 80 0 14 -16 16 -35 4 -29 -17 -103 -27 -127
-15 -10 4 -18 4 -18 0 0 -10 -261 -10 -277 0 -8 5 -10 22 -6 50 3 23 6 48 6
55 0 6 4 12 8 12 5 0 6 6 3 14 -3 8 -1 17 5 21 6 3 11 14 11 24 0 50 111 148
132 117 6 -8 8 -8 8 1 0 8 9 8 35 0 19 -6 35 -14 35 -17 0 -4 12 -10 28 -13
15 -4 53 -29 85 -57 58 -49 77 -59 77 -40 0 6 4 10 10 10 18 0 86 73 72 78 -7
2 -21 12 -30 22 -17 17 -101 69 -114 69 -5 1 -9 1 -10 2 -61 18 -120 17 -178
-2z"/>
<path d="M2649 8336 c-2 -2 -32 -6 -66 -9 -34 -3 -66 -8 -71 -11 -5 -3 -10
-115 -10 -248 -1 -134 -3 -252 -6 -263 -14 -63 -20 -82 -34 -97 -8 -10 -12
-18 -8 -18 4 0 -2 -14 -14 -30 -12 -17 -26 -28 -31 -25 -5 4 -9 0 -9 -7 0 -18
-34 -38 -59 -33 -32 6 -104 41 -128 61 -11 11 -32 40 -45 64 -23 44 -23 50
-23 329 l0 283 -75 -6 c-129 -12 -141 -17 -113 -48 19 -21 21 -90 12 -433 -3
-119 -3 -121 30 -187 19 -37 37 -65 41 -63 4 3 10 -1 13 -8 9 -23 97 -59 157
-64 45 -3 70 0 104 15 45 20 152 90 178 115 15 15 30 5 36 -23 2 -8 21 -31 42
-52 20 -20 35 -40 31 -43 -3 -4 6 -2 19 4 43 16 89 42 95 52 4 5 10 7 15 4 4
-3 13 2 20 10 13 16 12 17 -18 19 -28 2 -50 29 -60 73 -5 22 -9 173 -9 336 0
274 -2 314 -14 303z"/>
<path d="M2939 8336 c-2 -2 -29 -7 -59 -10 -109 -13 -135 -20 -124 -37 3 -5
10 -7 15 -3 6 3 13 -3 16 -15 3 -12 8 -21 12 -21 3 0 6 -163 6 -362 0 -357 0
-363 20 -362 43 3 129 19 143 27 5 4 8 710 3 775 -1 11 -22 17 -32 8z"/>
<path d="M3288 8315 c-51 -20 -110 -52 -135 -74 -7 -6 -17 -11 -23 -11 -5 0
-10 -7 -10 -15 0 -8 -4 -15 -10 -15 -5 0 -10 -6 -10 -14 0 -8 -4 -16 -10 -18
-5 -1 -11 -12 -13 -23 -1 -11 -6 -25 -9 -30 -10 -17 -1 -129 11 -133 6 -2 11
-9 11 -16 0 -17 79 -65 155 -96 33 -13 63 -29 67 -34 4 -6 8 -8 8 -4 0 12 95
-40 123 -68 34 -34 36 -93 6 -144 -28 -46 -46 -58 -94 -65 -82 -13 -149 41
-143 115 1 16 5 30 9 30 4 0 5 9 2 19 -4 17 -13 19 -80 15 -41 -2 -80 -7 -85
-10 -12 -7 -4 -94 10 -121 23 -43 76 -69 163 -79 24 -3 46 -7 50 -10 4 -2 10
0 14 5 4 7 15 7 30 1 17 -6 25 -6 25 1 0 5 6 9 13 7 21 -4 91 13 115 28 12 8
22 12 22 8 0 -3 19 9 41 27 53 42 92 123 92 190 0 27 -6 56 -13 64 -7 8 -9 15
-5 15 17 0 -30 42 -64 57 -20 10 -39 22 -43 27 -4 6 -8 7 -8 2 0 -4 -11 -1
-25 8 -14 9 -25 14 -25 10 0 -3 -17 5 -37 18 -21 12 -40 22 -43 22 -8 -2 -34
8 -49 20 -7 5 -19 11 -26 12 -20 3 -102 62 -118 85 -39 55 13 153 78 146 31
-3 101 -33 121 -52 6 -5 22 -17 34 -25 60 -40 80 -62 80 -91 0 -16 4 -29 9
-29 12 0 41 29 41 40 0 5 6 15 13 22 7 7 21 30 31 52 l18 39 -28 23 c-26 21
-127 76 -146 80 -5 1 -11 3 -15 4 -26 9 -80 2 -125 -15z"/>
<path d="M4070 8316 c-114 -43 -181 -76 -208 -103 -7 -7 -18 -13 -23 -13 -6 0
-7 -4 -4 -10 3 -5 1 -10 -5 -10 -6 0 -22 -11 -36 -25 -14 -14 -22 -25 -18 -25
4 0 -3 -9 -16 -20 -13 -11 -20 -20 -16 -20 3 0 -1 -15 -11 -32 -22 -41 -26
-64 -26 -158 0 -96 6 -122 44 -197 21 -40 45 -71 70 -89 22 -15 39 -31 39 -35
0 -5 3 -8 8 -7 4 1 27 -8 52 -21 45 -22 171 -38 194 -23 6 3 17 7 24 8 7 1 42
16 78 33 37 17 68 31 70 31 9 0 -4 -168 -15 -190 -7 -14 -30 -39 -50 -57 -35
-31 -35 -32 -11 -33 35 0 135 52 170 88 36 38 58 90 66 151 4 37 8 296 5 363
-1 18 -4 18 -131 3 -25 -3 -53 -6 -62 -6 -26 0 -31 -17 -8 -24 29 -9 40 -44
40 -126 0 -70 -10 -96 -51 -142 -20 -22 -85 -58 -92 -51 -2 3 -17 7 -33 10
-16 3 -34 10 -41 16 -7 6 -13 8 -13 4 0 -8 -43 28 -92 77 -21 21 -38 44 -38
52 0 8 -4 15 -10 15 -5 0 -10 8 -10 18 0 10 -4 22 -9 28 -15 15 -24 92 -23
199 0 102 3 129 15 141 4 4 7 13 7 21 0 23 50 71 96 92 47 22 104 28 104 10 0
-5 4 -8 8 -5 14 9 108 -51 162 -104 28 -27 56 -48 61 -44 5 3 25 29 44 57 l35
51 -25 22 c-14 12 -52 34 -83 49 -31 15 -64 30 -72 34 -27 13 -124 11 -160 -3z"/>
<path d="M7312 8305 c-18 -8 -39 -20 -47 -27 -7 -7 -27 -24 -44 -37 -26 -19
-42 -51 -26 -51 12 0 55 24 55 32 0 4 9 8 20 8 11 0 20 -3 20 -8 0 -4 10 -12
22 -17 26 -11 65 -80 73 -128 4 -17 10 -36 15 -42 18 -22 16 -67 -5 -79 -11
-6 -23 -15 -26 -19 -3 -5 -9 -8 -13 -7 -22 5 -165 -82 -216 -132 -109 -107
-102 -205 19 -265 32 -16 49 -19 62 -13 10 6 24 10 33 10 8 0 27 5 43 12 15 6
31 12 34 12 14 2 164 81 167 88 9 21 35 3 71 -50 59 -88 57 -87 128 -39 47 31
59 45 51 54 -6 7 -7 13 -4 13 4 0 -1 9 -11 19 -27 30 -83 144 -79 162 0 3 -5
13 -13 22 -7 10 -11 17 -7 17 3 0 -3 24 -14 53 -12 28 -36 99 -55 157 -19 58
-39 113 -45 122 -5 10 -10 25 -10 33 0 8 -4 15 -10 15 -5 0 -10 6 -10 13 0 7
-13 27 -30 45 -16 18 -30 30 -30 26 0 -3 -6 -2 -12 3 -20 15 -70 14 -106 -2z
m152 -477 c12 -36 24 -69 27 -73 12 -11 -15 -80 -41 -103 -29 -28 -85 -54
-120 -56 -29 -1 -84 44 -107 87 -30 58 -23 110 21 152 15 14 66 46 66 41 0 -2
16 2 35 8 19 7 49 12 67 12 30 -1 32 -4 52 -68z"/>
<path d="M9392 8298 c-87 -49 -141 -109 -93 -105 11 0 18 4 15 8 -2 4 10 12
28 18 27 10 35 8 65 -15 19 -14 37 -34 40 -43 2 -9 9 -25 13 -36 5 -11 14 -38
20 -60 6 -22 14 -47 17 -55 16 -40 11 -45 -88 -94 -55 -27 -109 -58 -120 -69
-10 -11 -19 -18 -19 -14 0 7 -51 -44 -88 -87 -32 -38 -38 -116 -11 -145 11
-12 16 -21 12 -21 -4 0 16 -16 46 -35 30 -19 59 -31 65 -28 9 6 35 11 84 15 6
1 12 5 12 10 0 4 5 8 11 8 13 0 164 73 192 92 16 11 22 8 47 -22 16 -19 27
-37 24 -39 -2 -2 5 -11 16 -18 11 -8 18 -18 16 -22 -3 -4 3 -12 13 -18 15 -9
29 -4 78 30 56 38 60 43 50 64 -5 13 -14 23 -19 23 -4 0 -8 5 -8 10 0 6 -10
27 -23 48 -13 20 -31 60 -41 87 -10 28 -20 57 -23 65 -3 8 -7 22 -9 31 -2 9
-9 29 -15 45 -7 16 -13 34 -15 39 -1 6 -9 27 -18 48 -9 20 -13 37 -10 37 4 0
1 7 -6 15 -7 8 -9 15 -5 15 4 0 0 11 -9 25 -9 14 -14 25 -10 25 4 0 1 7 -6 15
-7 8 -10 15 -6 15 9 0 -34 83 -48 92 -6 4 -7 8 -2 8 14 0 -36 41 -62 51 -37
14 -66 11 -110 -13z m152 -433 c5 -17 11 -37 14 -45 3 -8 7 -23 9 -34 2 -10 7
-25 12 -34 23 -41 -58 -142 -114 -142 -9 0 -14 -3 -11 -8 2 -4 -10 -7 -27 -7
-24 0 -43 11 -73 40 -78 75 -80 154 -7 208 34 26 118 54 156 53 26 -1 33 -7
41 -31z"/>
<path d="M5369 6973 c-31 -51 -50 -93 -41 -93 4 0 2 -4 -4 -8 -9 -6 -105 -193
-109 -212 0 -3 -6 -15 -13 -26 -6 -12 -8 -24 -5 -28 3 -3 2 -6 -3 -6 -6 0 -16
-16 -24 -35 -8 -19 -17 -35 -22 -35 -4 0 -8 -7 -8 -15 0 -9 -7 -27 -16 -40 -9
-13 -13 -29 -9 -35 3 -5 2 -10 -2 -10 -8 0 -49 -62 -45 -67 0 -2 -5 -18 -14
-38 -8 -19 -14 -38 -13 -41 0 -4 -3 -10 -8 -13 -11 -8 -123 -235 -123 -249 0
-7 -4 -12 -10 -12 -5 0 -10 -4 -10 -9 0 -5 -7 -25 -15 -45 -8 -20 -14 -38 -13
-40 2 -2 -4 -12 -13 -22 -17 -21 -55 -98 -48 -100 2 -1 -3 -10 -12 -20 -9 -11
-19 -31 -23 -46 -3 -16 -11 -28 -16 -28 -6 0 -10 -8 -10 -18 0 -10 -7 -27 -15
-38 -8 -10 -15 -27 -15 -36 0 -10 -4 -18 -9 -18 -10 0 -22 -49 -12 -51 3 -1
136 -2 294 -3 267 -1 298 2 303 24 3 16 19 47 32 63 8 9 12 17 8 17 -8 0 23
58 42 78 6 7 12 22 12 33 0 10 4 19 10 19 5 0 9 3 9 8 -3 13 25 72 34 72 4 0
6 4 2 9 -3 5 -1 12 5 16 5 3 10 15 10 26 0 10 5 19 10 19 6 0 10 9 10 19 0 11
7 27 16 35 8 9 13 16 9 16 -8 0 37 84 48 88 4 2 7 10 7 17 0 22 100 117 116
111 8 -3 14 -2 14 3 0 5 27 8 61 7 72 -2 95 -21 84 -71 -4 -16 -8 -37 -8 -45
-1 -8 -5 -17 -8 -20 -10 -8 -91 -183 -92 -197 0 -7 -4 -13 -8 -13 -9 0 -72
-129 -72 -147 0 -7 -6 -14 -14 -17 -7 -3 -13 -15 -13 -26 0 -11 -5 -20 -11
-20 -5 0 -8 -4 -5 -9 3 -5 -4 -20 -15 -35 -11 -14 -17 -26 -14 -26 4 0 2 -6
-4 -14 -6 -7 -9 -20 -6 -27 4 -12 58 -14 294 -13 295 0 321 3 321 39 0 7 7 18
15 25 8 7 13 16 10 20 -3 5 2 15 10 23 8 9 15 21 15 27 0 6 7 18 15 26 8 9 15
24 15 35 0 10 5 19 10 19 6 0 10 9 10 19 0 11 7 26 15 35 8 8 15 18 15 23 0 5
16 40 35 77 19 38 35 74 35 80 0 7 9 22 20 34 12 12 18 22 15 22 -3 0 2 11 11
25 9 14 12 25 8 25 -5 0 -4 4 1 8 11 7 42 71 43 86 0 5 4 12 9 15 12 9 43 71
43 87 0 8 4 14 8 14 4 0 14 20 21 45 7 25 17 45 23 45 5 0 6 5 3 10 -4 6 -2
16 3 23 6 7 12 24 14 37 2 14 6 30 9 35 7 14 3 104 -6 138 -9 33 -88 105 -124
113 -14 3 -35 9 -46 14 -25 10 -286 11 -300 0 -5 -4 -26 -10 -45 -13 -19 -3
-48 -11 -65 -18 -16 -7 -33 -12 -37 -11 -3 1 -12 -5 -18 -13 -7 -8 -18 -15
-25 -15 -6 0 -20 -9 -30 -20 -10 -11 -23 -20 -30 -20 -6 0 -31 -18 -54 -40
-23 -22 -44 -40 -47 -40 -8 0 8 44 18 51 5 3 9 10 9 15 -1 18 11 44 20 44 6 0
8 4 4 9 -3 5 0 15 7 23 7 7 15 22 16 33 2 11 8 22 13 23 5 2 9 10 9 19 0 8 7
21 15 29 8 9 15 24 15 34 0 10 7 21 16 24 8 3 13 10 10 15 -4 5 -1 15 6 23 7
7 15 22 16 33 2 11 9 26 15 33 8 10 7 16 -4 23 -8 5 -138 9 -291 9 l-276 0
-23 -37z"/>
<path d="M7062 6998 c-7 -7 -12 -20 -12 -30 0 -10 -4 -18 -10 -18 -5 0 -10 -9
-10 -20 0 -11 -5 -20 -11 -20 -5 0 -7 -4 -4 -10 3 -5 1 -10 -4 -10 -6 0 -11
-4 -11 -10 0 -11 -71 -163 -79 -170 -9 -7 -42 -84 -41 -94 1 -5 -2 -12 -7 -15
-13 -9 -45 -71 -37 -71 4 0 0 -8 -9 -18 -10 -10 -14 -22 -10 -25 3 -4 2 -7 -4
-7 -9 0 -19 -20 -20 -40 0 -4 -26 -53 -72 -137 -29 -53 -59 -123 -53 -123 4 0
2 -4 -3 -8 -6 -4 -21 -32 -35 -62 -14 -30 -28 -57 -33 -58 -4 -2 -5 -8 -1 -13
3 -5 0 -9 -6 -9 -7 0 -10 -6 -7 -14 3 -8 -1 -17 -10 -20 -8 -4 -13 -13 -10
-20 3 -8 -1 -20 -8 -26 -19 -16 -46 -70 -40 -80 3 -5 0 -10 -5 -12 -6 -2 -12
-10 -13 -19 -2 -9 -11 -29 -21 -44 -10 -15 -19 -33 -20 -39 -3 -15 -48 -110
-56 -116 -11 -10 -34 -65 -36 -85 -1 -20 5 -20 286 -19 306 0 310 1 318 49 2
11 7 22 11 25 9 6 81 155 81 167 0 5 10 20 23 33 12 14 21 25 19 25 -10 1 75
186 90 196 6 3 9 8 8 10 -1 2 4 18 11 34 7 17 13 32 14 35 12 35 27 60 36 60
7 0 9 3 6 7 -4 3 0 17 8 30 9 13 12 23 8 23 -5 0 -2 4 5 8 7 5 15 19 17 32 2
13 10 27 17 32 7 4 10 8 6 8 -3 0 11 35 32 78 20 42 46 95 56 117 10 22 23 43
28 47 7 5 7 8 1 8 -5 0 -4 4 4 9 8 5 16 20 18 32 2 13 9 27 16 31 6 4 8 8 4 8
-4 0 4 20 18 43 14 24 22 47 18 50 -3 4 -2 7 3 7 5 0 18 23 29 51 11 28 26 54
32 56 7 3 10 9 7 14 -3 5 2 16 10 25 9 9 14 20 11 25 -4 5 -2 9 3 9 9 0 12 7
21 45 2 6 7 15 12 21 17 20 -28 24 -306 24 -198 0 -274 -3 -283 -12z"/>
<path d="M1948 6946 c-13 -7 -23 -16 -23 -21 0 -6 -10 -24 -23 -42 -12 -17
-22 -35 -22 -39 0 -4 -34 -76 -75 -160 -41 -84 -75 -157 -75 -163 0 -6 -4 -11
-8 -11 -10 0 -42 -65 -42 -85 0 -8 -4 -15 -9 -15 -5 0 -12 -13 -16 -30 -4 -16
-11 -30 -17 -30 -6 0 -8 -3 -5 -7 4 -3 0 -14 -8 -23 -8 -9 -16 -26 -18 -38 -2
-12 -9 -28 -15 -34 -7 -7 -12 -18 -12 -25 0 -7 -5 -13 -11 -13 -6 0 -9 -6 -6
-14 3 -8 3 -16 -1 -18 -11 -5 -62 -106 -62 -123 0 -8 -4 -15 -8 -15 -10 0 -45
-71 -38 -77 2 -3 -4 -13 -15 -24 -11 -11 -17 -24 -14 -29 3 -4 2 -10 -2 -12
-11 -4 -93 -170 -93 -186 0 -6 -4 -12 -10 -12 -5 0 -10 -8 -10 -17 0 -9 -7
-24 -15 -32 -8 -9 -17 -36 -21 -59 -6 -37 -4 -42 12 -43 11 -1 282 -2 604 -3
458 -1 592 1 619 11 18 7 44 13 57 13 12 0 26 5 29 10 3 6 19 10 35 10 16 0
32 5 35 10 4 6 11 8 16 5 5 -4 9 -2 9 3 0 4 16 14 35 22 19 8 35 17 35 22 0 4
5 8 12 8 29 0 164 118 223 195 11 14 25 31 30 38 6 7 11 19 13 27 2 8 9 22 16
30 17 20 68 108 84 145 7 16 16 32 20 35 12 8 52 91 52 106 0 8 5 14 10 14 6
0 10 7 10 15 0 8 4 23 10 33 35 63 81 188 72 197 -4 3 -1 9 6 14 6 4 13 20 14
37 1 16 4 33 7 39 7 14 5 145 -4 185 -12 53 -68 135 -85 125 -4 -3 -13 2 -20
10 -7 8 -19 15 -26 15 -8 0 -14 5 -14 11 0 6 -6 9 -12 6 -7 -2 -22 1 -33 7
-29 15 -1166 17 -1197 2z m637 -479 c41 -14 52 -32 48 -78 -4 -54 -6 -62 -21
-77 -7 -8 -10 -17 -7 -22 3 -4 -2 -13 -10 -20 -8 -7 -15 -20 -15 -29 0 -10 -7
-26 -15 -37 -8 -10 -15 -27 -15 -36 0 -10 -3 -18 -8 -18 -4 0 -13 -13 -19 -28
-29 -65 -84 -119 -150 -148 -47 -21 -69 -24 -179 -24 -69 0 -124 3 -122 8 2 4
12 26 23 50 11 23 23 42 27 42 5 0 8 6 8 13 0 7 18 48 40 91 22 43 40 84 40
92 0 8 4 14 9 14 5 0 12 14 16 31 4 17 13 33 22 36 8 3 12 11 9 18 -2 7 4 22
14 33 10 11 16 23 12 26 -3 4 -1 11 6 15 8 4 14 16 16 25 1 10 8 21 16 26 19
12 218 9 255 -3z"/>
<path d="M3988 6758 c-2 -5 -23 -11 -48 -13 -66 -7 -70 -8 -70 -17 0 -4 -11
-8 -25 -8 -14 0 -25 -4 -25 -8 0 -4 -9 -8 -21 -9 -11 -1 -36 -13 -54 -27 -19
-14 -38 -26 -42 -26 -5 0 -28 -18 -51 -40 -23 -23 -42 -38 -42 -35 0 9 -80
-76 -105 -111 -11 -15 -35 -48 -53 -72 -19 -24 -43 -61 -54 -81 -56 -98 -86
-160 -80 -165 3 -3 0 -6 -6 -6 -6 0 -9 -7 -6 -15 4 -8 2 -15 -3 -15 -12 0 -33
-45 -33 -70 0 -11 -4 -20 -9 -20 -5 0 -12 -17 -16 -37 -4 -21 -11 -44 -17 -50
-6 -7 -8 -22 -5 -33 3 -11 1 -23 -4 -26 -5 -3 -7 -9 -4 -14 3 -5 1 -11 -5 -15
-10 -6 -7 -90 5 -140 10 -38 56 -103 92 -127 28 -19 63 -36 73 -35 3 0 14 -5
25 -11 36 -18 94 -22 345 -23 250 -1 415 8 415 22 0 1 14 3 30 4 51 4 106 15
125 25 10 6 31 10 47 10 35 0 63 23 95 75 14 22 33 46 42 54 8 7 13 17 10 22
-3 5 0 9 5 9 6 0 11 7 11 16 0 8 4 12 10 9 5 -3 12 6 16 20 3 14 9 25 14 25 4
0 15 16 26 35 10 19 22 35 26 35 5 0 8 11 8 25 0 28 -23 33 -55 12 -11 -7 -31
-12 -45 -11 -14 1 -27 -2 -31 -7 -3 -5 -25 -11 -50 -14 -24 -2 -57 -7 -74 -9
-46 -7 -222 -26 -299 -32 -43 -4 -72 -2 -79 5 -6 6 -29 11 -51 11 -44 0 -111
34 -101 50 3 6 2 10 -3 10 -12 0 -9 30 5 56 7 12 10 24 7 27 -14 13 59 16 458
15 440 -1 458 1 458 38 0 8 4 14 9 14 5 0 12 11 15 25 4 14 10 25 15 25 5 0
12 14 16 30 4 17 10 30 14 30 9 0 45 72 42 85 -1 5 6 15 15 22 10 7 15 13 11
13 -4 0 -3 9 3 19 19 36 30 206 15 246 -31 88 -61 116 -187 175 -14 7 -31 10
-36 6 -6 -3 -13 -2 -16 2 -3 5 -24 9 -47 10 -23 1 -47 6 -53 11 -15 11 -594
11 -598 -1z m340 -311 c68 -21 79 -39 70 -117 -2 -14 -10 -30 -18 -37 -19 -16
-356 -18 -365 -3 -3 6 -1 10 4 10 6 0 11 5 11 10 0 15 73 90 88 90 6 0 12 5
12 10 0 6 9 10 20 10 11 0 20 5 20 10 0 6 12 10 28 10 15 0 34 5 42 10 20 13
37 12 88 -3z"/>
<path d="M8073 6760 c-4 -5 -30 -11 -58 -15 -27 -3 -52 -9 -55 -13 -3 -4 -14
-8 -25 -10 -11 -2 -30 -10 -42 -18 -12 -8 -29 -14 -38 -14 -8 0 -15 -4 -15
-10 0 -5 -5 -10 -12 -10 -18 0 -118 -79 -178 -141 -51 -53 -124 -146 -125
-160 0 -3 -7 -12 -15 -20 -8 -9 -26 -39 -39 -67 -14 -29 -28 -52 -33 -52 -4 0
-8 -7 -8 -16 0 -8 -7 -22 -15 -30 -8 -9 -15 -24 -15 -35 0 -10 -4 -19 -10 -19
-5 0 -10 -4 -10 -9 0 -5 -5 -22 -12 -38 -6 -15 -13 -37 -15 -48 -2 -11 -8 -21
-13 -23 -6 -2 -10 -14 -10 -27 0 -12 -6 -40 -14 -61 -18 -53 -15 -230 4 -264
34 -58 102 -112 160 -126 8 -2 35 -9 60 -15 28 -7 139 -11 300 -10 292 1 382
5 401 17 7 4 32 9 54 10 22 1 47 4 55 6 8 3 31 10 51 17 19 6 47 11 62 11 15
0 27 5 27 11 0 5 4 8 8 5 4 -2 19 12 32 32 14 20 29 40 35 44 5 4 6 8 1 8 -5
0 3 12 17 26 15 14 29 35 32 45 4 10 11 19 16 19 5 0 9 7 9 15 0 9 7 18 15 21
8 4 15 10 15 15 0 6 9 19 19 30 20 21 36 67 27 76 -2 3 -22 -1 -43 -8 -21 -7
-44 -12 -50 -11 -7 2 -21 -2 -31 -7 -11 -6 -43 -13 -73 -16 -30 -3 -65 -8 -79
-11 -14 -4 -63 -9 -110 -11 -47 -3 -89 -9 -94 -14 -13 -12 -153 -11 -161 1 -3
6 -22 10 -42 10 -40 0 -103 26 -104 44 0 6 -2 20 -4 30 -2 11 -1 25 3 30 3 6
7 17 9 25 1 8 7 17 14 22 7 4 207 7 446 7 430 -1 434 0 454 21 11 11 17 21 14
21 -4 0 2 12 13 28 21 30 36 63 34 75 -1 4 5 7 13 7 9 0 12 6 9 15 -4 8 1 17
10 21 9 3 13 10 11 15 -3 4 7 32 22 61 34 67 34 64 36 183 3 106 -6 139 -56
194 -49 54 -160 101 -230 97 -20 -1 -38 3 -40 9 -4 12 -601 16 -614 5z m352
-318 c66 -23 80 -49 56 -111 l-17 -46 -182 -3 c-112 -1 -182 1 -182 7 0 5 14
25 30 43 17 18 30 36 30 40 0 5 7 8 15 8 8 0 15 4 15 8 0 11 56 43 64 35 3 -3
6 -1 6 5 0 7 15 12 34 12 19 0 38 5 41 10 8 14 31 11 90 -8z"/>
<path d="M10110 6759 c0 -5 -9 -9 -19 -9 -11 0 -22 -4 -26 -10 -3 -5 -12 -7
-20 -3 -8 3 -15 0 -15 -6 0 -6 -9 -11 -20 -11 -11 0 -20 -4 -20 -8 0 -4 -15
-16 -32 -26 -37 -21 -46 -29 -101 -80 -21 -20 -42 -36 -47 -36 -8 0 17 53 58
122 9 15 12 31 8 35 -11 11 -566 12 -566 1 0 -5 -4 -6 -10 -3 -9 5 -15 -15
-11 -37 0 -5 -3 -8 -8 -8 -8 0 -25 -35 -24 -50 1 -3 -8 -17 -19 -32 -11 -16
-16 -28 -13 -28 3 0 -3 -13 -15 -30 -12 -16 -19 -30 -15 -30 3 0 -2 -11 -11
-25 -9 -14 -12 -25 -8 -25 5 0 1 -5 -8 -11 -10 -5 -18 -15 -18 -22 0 -7 -14
-39 -30 -71 -17 -32 -30 -65 -30 -72 0 -8 -4 -14 -10 -14 -5 0 -10 -8 -10 -19
0 -10 -7 -24 -15 -31 -8 -6 -14 -15 -13 -18 2 -10 -25 -66 -35 -73 -5 -3 -8
-8 -6 -10 5 -9 -13 -49 -22 -49 -5 0 -9 -9 -9 -21 0 -11 -7 -27 -15 -35 -8 -9
-15 -24 -15 -35 0 -10 -4 -19 -9 -19 -5 0 -12 -10 -16 -22 -4 -13 -8 -25 -9
-28 -7 -19 -41 -86 -47 -90 -3 -3 -10 -20 -14 -37 -3 -18 -11 -33 -16 -33 -6
0 -8 -4 -5 -9 4 -5 2 -11 -2 -13 -5 -1 -23 -34 -41 -73 -18 -38 -36 -78 -41
-87 -7 -11 -6 -20 2 -25 7 -4 140 -7 296 -7 259 -1 285 1 303 17 18 17 23 31
20 51 -1 5 2 12 7 15 9 7 52 93 52 106 0 5 7 16 15 25 9 10 17 26 20 38 5 26
35 85 47 93 5 3 10 10 10 15 1 17 50 85 76 108 7 6 22 19 32 28 11 10 31 20
44 24 14 3 30 12 37 20 6 8 21 14 33 14 12 0 27 5 34 12 16 16 273 14 313 -2
27 -12 31 -10 56 16 15 16 26 30 25 31 -5 7 31 83 39 83 5 0 8 3 7 8 -3 10 32
75 46 84 6 4 8 8 3 8 -4 0 -1 13 8 30 8 16 15 33 14 36 0 4 3 10 8 13 12 9 43
71 43 87 0 8 3 14 8 14 4 0 13 15 21 33 8 17 18 34 22 37 7 6 70 138 75 158 1
6 -6 12 -16 12 -10 0 -21 4 -24 8 -7 11 -306 12 -306 1z"/>
</g>
</svg>
